G04 MADE WITH FRITZING*
G04 WWW.FRITZING.ORG*
G04 DOUBLE SIDED*
G04 HOLES PLATED*
G04 CONTOUR ON CENTER OF CONTOUR VECTOR*
%ASAXBY*%
%FSLAX23Y23*%
%MOIN*%
%OFA0B0*%
%SFA1.0B1.0*%
%ADD10C,0.078000*%
%ADD11C,0.090000*%
%ADD12C,0.070000*%
%ADD13C,0.060000*%
%ADD14C,0.074000*%
%ADD15C,0.039370*%
%ADD16C,0.024000*%
%ADD17R,0.001000X0.001000*%
%LNCOPPER1*%
G90*
G70*
G54D10*
X1071Y1654D03*
X1071Y1754D03*
X1071Y1854D03*
X1071Y1954D03*
X1071Y2054D03*
G54D11*
X309Y254D03*
X309Y854D03*
X834Y854D03*
X834Y254D03*
G54D12*
X971Y654D03*
X971Y554D03*
X971Y454D03*
X571Y154D03*
X671Y154D03*
X471Y154D03*
X271Y679D03*
X271Y429D03*
X71Y429D03*
X71Y679D03*
G54D11*
X309Y254D03*
X309Y854D03*
X834Y854D03*
X834Y254D03*
G54D12*
X971Y654D03*
X971Y554D03*
X971Y454D03*
X571Y154D03*
X671Y154D03*
X471Y154D03*
X271Y679D03*
X271Y429D03*
X71Y429D03*
X71Y679D03*
G54D13*
X371Y1454D03*
X371Y1354D03*
X371Y1254D03*
X371Y1454D03*
X371Y1354D03*
X371Y1254D03*
G54D14*
X1821Y1854D03*
X1721Y1854D03*
X1621Y1854D03*
X1521Y1854D03*
X1421Y1854D03*
X1321Y1854D03*
X1756Y1309D03*
X1756Y1409D03*
X1756Y899D03*
X1756Y999D03*
X1871Y1754D03*
X1871Y1654D03*
X1871Y1554D03*
X1871Y1454D03*
X1871Y1354D03*
X1871Y1254D03*
X1871Y1154D03*
X1871Y1054D03*
X1871Y954D03*
X1871Y854D03*
X1871Y754D03*
X1871Y654D03*
X1271Y654D03*
X1271Y754D03*
X1271Y854D03*
X1271Y954D03*
X1271Y1054D03*
X1271Y1154D03*
X1271Y1254D03*
X1271Y1354D03*
X1271Y1454D03*
X1271Y1554D03*
X1271Y1654D03*
X1271Y1754D03*
G54D10*
X171Y1254D03*
X171Y1354D03*
G54D15*
X2271Y154D03*
G54D10*
X2371Y2054D03*
X2471Y2054D03*
X2571Y2054D03*
X2671Y2054D03*
G54D15*
X1371Y454D03*
X2371Y1254D03*
X2871Y754D03*
X2471Y1354D03*
X2671Y754D03*
X2171Y254D03*
G54D11*
X2409Y254D03*
X2409Y854D03*
X2934Y854D03*
X2934Y254D03*
G54D12*
X3071Y654D03*
X3071Y554D03*
X3071Y454D03*
X2671Y154D03*
X2771Y154D03*
X2571Y154D03*
X2371Y679D03*
X2371Y429D03*
X2171Y429D03*
X2171Y679D03*
G54D11*
X2409Y254D03*
X2409Y854D03*
X2934Y854D03*
X2934Y254D03*
G54D12*
X3071Y654D03*
X3071Y554D03*
X3071Y454D03*
X2671Y154D03*
X2771Y154D03*
X2571Y154D03*
X2371Y679D03*
X2371Y429D03*
X2171Y429D03*
X2171Y679D03*
G54D15*
X1671Y1154D03*
G54D16*
X773Y652D02*
X471Y652D01*
D02*
X873Y652D02*
X773Y652D01*
D02*
X471Y652D02*
X471Y183D01*
D02*
X943Y653D02*
X873Y652D01*
D02*
X2770Y453D02*
X3043Y454D01*
D02*
X2771Y183D02*
X2770Y453D01*
D02*
X2570Y656D02*
X2571Y183D01*
D02*
X3043Y654D02*
X2570Y656D01*
D02*
X1973Y1054D02*
X1973Y552D01*
D02*
X1271Y552D02*
X1000Y554D01*
D02*
X1973Y552D02*
X1271Y552D01*
D02*
X1903Y1054D02*
X1973Y1054D01*
D02*
X2072Y54D02*
X570Y54D01*
D02*
X2072Y1154D02*
X2072Y54D01*
D02*
X570Y54D02*
X571Y125D01*
D02*
X1903Y1154D02*
X2072Y1154D01*
D02*
X471Y1054D02*
X371Y1054D01*
D02*
X371Y1054D02*
X371Y1223D01*
D02*
X471Y652D02*
X471Y1054D01*
D02*
X72Y400D02*
X72Y353D01*
D02*
X72Y353D02*
X172Y353D01*
D02*
X340Y1454D02*
X271Y1454D01*
D02*
X271Y1454D02*
X193Y1375D01*
D02*
X172Y353D02*
X171Y1224D01*
D02*
X2271Y1453D02*
X2271Y173D01*
D02*
X2471Y1450D02*
X2271Y1453D01*
D02*
X2471Y2024D02*
X2471Y1450D01*
D02*
X2368Y1650D02*
X1903Y1654D01*
D02*
X2371Y2024D02*
X2368Y1650D01*
D02*
X2773Y54D02*
X2772Y125D01*
D02*
X2171Y54D02*
X2773Y54D01*
D02*
X2171Y235D02*
X2171Y54D01*
D02*
X271Y1354D02*
X340Y1354D01*
D02*
X193Y1275D02*
X271Y1354D01*
D02*
X671Y1154D02*
X671Y2054D01*
D02*
X1240Y1154D02*
X671Y1154D01*
D02*
X671Y2054D02*
X1041Y2054D01*
D02*
X771Y1954D02*
X1041Y1954D01*
D02*
X771Y1254D02*
X771Y1954D01*
D02*
X1240Y1254D02*
X771Y1254D01*
D02*
X1071Y1454D02*
X871Y1454D01*
D02*
X871Y1454D02*
X871Y1854D01*
D02*
X1071Y1354D02*
X1071Y1454D01*
D02*
X871Y1854D02*
X1041Y1854D01*
D02*
X1240Y1354D02*
X1071Y1354D01*
D02*
X1171Y1454D02*
X1240Y1454D01*
D02*
X1171Y1754D02*
X1171Y1454D01*
D02*
X1102Y1754D02*
X1171Y1754D01*
D02*
X1971Y454D02*
X1390Y454D01*
D02*
X2143Y433D02*
X1971Y454D01*
D02*
X2871Y1254D02*
X2390Y1254D01*
D02*
X2871Y773D02*
X2871Y1254D01*
D02*
X2671Y1354D02*
X2671Y773D01*
D02*
X2490Y1354D02*
X2671Y1354D01*
D02*
X2290Y154D02*
X2543Y154D01*
D02*
X1671Y1173D02*
X1671Y1354D01*
D02*
X1671Y1354D02*
X1730Y1392D01*
G54D17*
X341Y1485D02*
X401Y1485D01*
X334Y1484D02*
X408Y1484D01*
X331Y1483D02*
X411Y1483D01*
X328Y1482D02*
X413Y1482D01*
X326Y1481D02*
X415Y1481D01*
X325Y1480D02*
X417Y1480D01*
X323Y1479D02*
X418Y1479D01*
X322Y1478D02*
X420Y1478D01*
X321Y1477D02*
X421Y1477D01*
X320Y1476D02*
X422Y1476D01*
X319Y1475D02*
X370Y1475D01*
X372Y1475D02*
X423Y1475D01*
X318Y1474D02*
X364Y1474D01*
X377Y1474D02*
X424Y1474D01*
X317Y1473D02*
X362Y1473D01*
X380Y1473D02*
X424Y1473D01*
X317Y1472D02*
X360Y1472D01*
X382Y1472D02*
X425Y1472D01*
X316Y1471D02*
X358Y1471D01*
X383Y1471D02*
X426Y1471D01*
X315Y1470D02*
X357Y1470D01*
X385Y1470D02*
X426Y1470D01*
X315Y1469D02*
X356Y1469D01*
X386Y1469D02*
X427Y1469D01*
X314Y1468D02*
X355Y1468D01*
X386Y1468D02*
X427Y1468D01*
X314Y1467D02*
X354Y1467D01*
X387Y1467D02*
X428Y1467D01*
X314Y1466D02*
X354Y1466D01*
X388Y1466D02*
X428Y1466D01*
X313Y1465D02*
X353Y1465D01*
X389Y1465D02*
X429Y1465D01*
X313Y1464D02*
X353Y1464D01*
X389Y1464D02*
X429Y1464D01*
X313Y1463D02*
X352Y1463D01*
X390Y1463D02*
X429Y1463D01*
X312Y1462D02*
X352Y1462D01*
X390Y1462D02*
X430Y1462D01*
X312Y1461D02*
X351Y1461D01*
X390Y1461D02*
X430Y1461D01*
X312Y1460D02*
X351Y1460D01*
X391Y1460D02*
X430Y1460D01*
X312Y1459D02*
X351Y1459D01*
X391Y1459D02*
X430Y1459D01*
X312Y1458D02*
X351Y1458D01*
X391Y1458D02*
X430Y1458D01*
X312Y1457D02*
X351Y1457D01*
X391Y1457D02*
X430Y1457D01*
X311Y1456D02*
X351Y1456D01*
X391Y1456D02*
X430Y1456D01*
X311Y1455D02*
X350Y1455D01*
X391Y1455D02*
X430Y1455D01*
X311Y1454D02*
X351Y1454D01*
X391Y1454D02*
X430Y1454D01*
X312Y1453D02*
X351Y1453D01*
X391Y1453D02*
X430Y1453D01*
X312Y1452D02*
X351Y1452D01*
X391Y1452D02*
X430Y1452D01*
X312Y1451D02*
X351Y1451D01*
X391Y1451D02*
X430Y1451D01*
X312Y1450D02*
X351Y1450D01*
X391Y1450D02*
X430Y1450D01*
X312Y1449D02*
X351Y1449D01*
X390Y1449D02*
X430Y1449D01*
X312Y1448D02*
X352Y1448D01*
X390Y1448D02*
X430Y1448D01*
X313Y1447D02*
X352Y1447D01*
X390Y1447D02*
X429Y1447D01*
X313Y1446D02*
X353Y1446D01*
X389Y1446D02*
X429Y1446D01*
X313Y1445D02*
X353Y1445D01*
X389Y1445D02*
X429Y1445D01*
X314Y1444D02*
X354Y1444D01*
X388Y1444D02*
X428Y1444D01*
X314Y1443D02*
X355Y1443D01*
X387Y1443D02*
X428Y1443D01*
X314Y1442D02*
X355Y1442D01*
X386Y1442D02*
X427Y1442D01*
X315Y1441D02*
X356Y1441D01*
X386Y1441D02*
X427Y1441D01*
X315Y1440D02*
X357Y1440D01*
X384Y1440D02*
X426Y1440D01*
X316Y1439D02*
X359Y1439D01*
X383Y1439D02*
X426Y1439D01*
X317Y1438D02*
X360Y1438D01*
X382Y1438D02*
X425Y1438D01*
X317Y1437D02*
X362Y1437D01*
X380Y1437D02*
X424Y1437D01*
X318Y1436D02*
X365Y1436D01*
X377Y1436D02*
X424Y1436D01*
X319Y1435D02*
X423Y1435D01*
X320Y1434D02*
X422Y1434D01*
X321Y1433D02*
X421Y1433D01*
X322Y1432D02*
X420Y1432D01*
X324Y1431D02*
X418Y1431D01*
X325Y1430D02*
X417Y1430D01*
X327Y1429D02*
X415Y1429D01*
X328Y1428D02*
X413Y1428D01*
X331Y1427D02*
X411Y1427D01*
X334Y1426D02*
X408Y1426D01*
X340Y1385D02*
X402Y1385D01*
X334Y1384D02*
X408Y1384D01*
X331Y1383D02*
X411Y1383D01*
X328Y1382D02*
X414Y1382D01*
X326Y1381D02*
X415Y1381D01*
X325Y1380D02*
X417Y1380D01*
X323Y1379D02*
X418Y1379D01*
X322Y1378D02*
X420Y1378D01*
X321Y1377D02*
X421Y1377D01*
X320Y1376D02*
X422Y1376D01*
X319Y1375D02*
X370Y1375D01*
X372Y1375D02*
X423Y1375D01*
X318Y1374D02*
X364Y1374D01*
X378Y1374D02*
X424Y1374D01*
X317Y1373D02*
X362Y1373D01*
X380Y1373D02*
X424Y1373D01*
X317Y1372D02*
X360Y1372D01*
X382Y1372D02*
X425Y1372D01*
X316Y1371D02*
X358Y1371D01*
X383Y1371D02*
X426Y1371D01*
X315Y1370D02*
X357Y1370D01*
X385Y1370D02*
X426Y1370D01*
X315Y1369D02*
X356Y1369D01*
X386Y1369D02*
X427Y1369D01*
X314Y1368D02*
X355Y1368D01*
X387Y1368D02*
X427Y1368D01*
X314Y1367D02*
X354Y1367D01*
X387Y1367D02*
X428Y1367D01*
X313Y1366D02*
X354Y1366D01*
X388Y1366D02*
X428Y1366D01*
X313Y1365D02*
X353Y1365D01*
X389Y1365D02*
X429Y1365D01*
X313Y1364D02*
X353Y1364D01*
X389Y1364D02*
X429Y1364D01*
X313Y1363D02*
X352Y1363D01*
X390Y1363D02*
X429Y1363D01*
X312Y1362D02*
X352Y1362D01*
X390Y1362D02*
X430Y1362D01*
X312Y1361D02*
X351Y1361D01*
X390Y1361D02*
X430Y1361D01*
X312Y1360D02*
X351Y1360D01*
X391Y1360D02*
X430Y1360D01*
X312Y1359D02*
X351Y1359D01*
X391Y1359D02*
X430Y1359D01*
X312Y1358D02*
X351Y1358D01*
X391Y1358D02*
X430Y1358D01*
X311Y1357D02*
X351Y1357D01*
X391Y1357D02*
X430Y1357D01*
X311Y1356D02*
X351Y1356D01*
X391Y1356D02*
X430Y1356D01*
X311Y1355D02*
X350Y1355D01*
X391Y1355D02*
X430Y1355D01*
X311Y1354D02*
X351Y1354D01*
X391Y1354D02*
X430Y1354D01*
X312Y1353D02*
X351Y1353D01*
X391Y1353D02*
X430Y1353D01*
X312Y1352D02*
X351Y1352D01*
X391Y1352D02*
X430Y1352D01*
X312Y1351D02*
X351Y1351D01*
X391Y1351D02*
X430Y1351D01*
X312Y1350D02*
X351Y1350D01*
X391Y1350D02*
X430Y1350D01*
X312Y1349D02*
X351Y1349D01*
X390Y1349D02*
X430Y1349D01*
X312Y1348D02*
X352Y1348D01*
X390Y1348D02*
X430Y1348D01*
X313Y1347D02*
X352Y1347D01*
X390Y1347D02*
X429Y1347D01*
X313Y1346D02*
X353Y1346D01*
X389Y1346D02*
X429Y1346D01*
X313Y1345D02*
X353Y1345D01*
X389Y1345D02*
X429Y1345D01*
X314Y1344D02*
X354Y1344D01*
X388Y1344D02*
X428Y1344D01*
X314Y1343D02*
X355Y1343D01*
X387Y1343D02*
X428Y1343D01*
X314Y1342D02*
X355Y1342D01*
X386Y1342D02*
X427Y1342D01*
X315Y1341D02*
X356Y1341D01*
X386Y1341D02*
X427Y1341D01*
X315Y1340D02*
X357Y1340D01*
X384Y1340D02*
X426Y1340D01*
X316Y1339D02*
X359Y1339D01*
X383Y1339D02*
X426Y1339D01*
X317Y1338D02*
X360Y1338D01*
X382Y1338D02*
X425Y1338D01*
X318Y1337D02*
X362Y1337D01*
X380Y1337D02*
X424Y1337D01*
X318Y1336D02*
X365Y1336D01*
X377Y1336D02*
X424Y1336D01*
X319Y1335D02*
X423Y1335D01*
X320Y1334D02*
X422Y1334D01*
X321Y1333D02*
X421Y1333D01*
X322Y1332D02*
X420Y1332D01*
X324Y1331D02*
X418Y1331D01*
X325Y1330D02*
X417Y1330D01*
X327Y1329D02*
X415Y1329D01*
X329Y1328D02*
X413Y1328D01*
X331Y1327D02*
X411Y1327D01*
X334Y1326D02*
X408Y1326D01*
X339Y1285D02*
X402Y1285D01*
X333Y1284D02*
X408Y1284D01*
X330Y1283D02*
X411Y1283D01*
X328Y1282D02*
X414Y1282D01*
X326Y1281D02*
X415Y1281D01*
X325Y1280D02*
X417Y1280D01*
X323Y1279D02*
X418Y1279D01*
X322Y1278D02*
X420Y1278D01*
X321Y1277D02*
X421Y1277D01*
X320Y1276D02*
X422Y1276D01*
X319Y1275D02*
X369Y1275D01*
X372Y1275D02*
X423Y1275D01*
X318Y1274D02*
X364Y1274D01*
X378Y1274D02*
X424Y1274D01*
X317Y1273D02*
X362Y1273D01*
X380Y1273D02*
X424Y1273D01*
X317Y1272D02*
X360Y1272D01*
X382Y1272D02*
X425Y1272D01*
X316Y1271D02*
X358Y1271D01*
X383Y1271D02*
X426Y1271D01*
X315Y1270D02*
X357Y1270D01*
X385Y1270D02*
X426Y1270D01*
X315Y1269D02*
X356Y1269D01*
X386Y1269D02*
X427Y1269D01*
X314Y1268D02*
X355Y1268D01*
X387Y1268D02*
X427Y1268D01*
X314Y1267D02*
X354Y1267D01*
X387Y1267D02*
X428Y1267D01*
X313Y1266D02*
X354Y1266D01*
X388Y1266D02*
X428Y1266D01*
X313Y1265D02*
X353Y1265D01*
X389Y1265D02*
X429Y1265D01*
X313Y1264D02*
X353Y1264D01*
X389Y1264D02*
X429Y1264D01*
X312Y1263D02*
X352Y1263D01*
X390Y1263D02*
X429Y1263D01*
X312Y1262D02*
X352Y1262D01*
X390Y1262D02*
X430Y1262D01*
X312Y1261D02*
X351Y1261D01*
X390Y1261D02*
X430Y1261D01*
X312Y1260D02*
X351Y1260D01*
X391Y1260D02*
X430Y1260D01*
X312Y1259D02*
X351Y1259D01*
X391Y1259D02*
X430Y1259D01*
X312Y1258D02*
X351Y1258D01*
X391Y1258D02*
X430Y1258D01*
X311Y1257D02*
X351Y1257D01*
X391Y1257D02*
X430Y1257D01*
X311Y1256D02*
X350Y1256D01*
X391Y1256D02*
X430Y1256D01*
X311Y1255D02*
X350Y1255D01*
X391Y1255D02*
X430Y1255D01*
X311Y1254D02*
X351Y1254D01*
X391Y1254D02*
X430Y1254D01*
X312Y1253D02*
X351Y1253D01*
X391Y1253D02*
X430Y1253D01*
X312Y1252D02*
X351Y1252D01*
X391Y1252D02*
X430Y1252D01*
X312Y1251D02*
X351Y1251D01*
X391Y1251D02*
X430Y1251D01*
X312Y1250D02*
X351Y1250D01*
X391Y1250D02*
X430Y1250D01*
X312Y1249D02*
X351Y1249D01*
X390Y1249D02*
X430Y1249D01*
X312Y1248D02*
X352Y1248D01*
X390Y1248D02*
X430Y1248D01*
X313Y1247D02*
X352Y1247D01*
X390Y1247D02*
X429Y1247D01*
X313Y1246D02*
X353Y1246D01*
X389Y1246D02*
X429Y1246D01*
X313Y1245D02*
X353Y1245D01*
X389Y1245D02*
X429Y1245D01*
X314Y1244D02*
X354Y1244D01*
X388Y1244D02*
X428Y1244D01*
X314Y1243D02*
X355Y1243D01*
X387Y1243D02*
X428Y1243D01*
X314Y1242D02*
X355Y1242D01*
X386Y1242D02*
X427Y1242D01*
X315Y1241D02*
X356Y1241D01*
X386Y1241D02*
X427Y1241D01*
X316Y1240D02*
X357Y1240D01*
X384Y1240D02*
X426Y1240D01*
X316Y1239D02*
X359Y1239D01*
X383Y1239D02*
X426Y1239D01*
X317Y1238D02*
X360Y1238D01*
X382Y1238D02*
X425Y1238D01*
X318Y1237D02*
X362Y1237D01*
X380Y1237D02*
X424Y1237D01*
X318Y1236D02*
X365Y1236D01*
X377Y1236D02*
X424Y1236D01*
X319Y1235D02*
X423Y1235D01*
X320Y1234D02*
X422Y1234D01*
X321Y1233D02*
X421Y1233D01*
X322Y1232D02*
X420Y1232D01*
X324Y1231D02*
X418Y1231D01*
X325Y1230D02*
X417Y1230D01*
X327Y1229D02*
X415Y1229D01*
X329Y1228D02*
X413Y1228D01*
X331Y1227D02*
X411Y1227D01*
X334Y1226D02*
X408Y1226D01*
D02*
G04 End of Copper1*
M02*