; NON-PLATED HOLES START AT T1
; THROUGH (PLATED) HOLES START AT T100
M48
INCH
T1C0.130000
T100C0.035433
T101C0.038000
T102C0.015748
T103C0.040000
T104C0.055000
T105C0.035000
%
T1
X009614Y013540
T100
X000714Y006790
X002714Y004290
X021714Y004290
X002714Y006790
X021714Y006790
X023714Y004290
X023714Y006790
X000714Y004290
T101
X010714Y016540
X010714Y020540
X010714Y017540
X001714Y012540
X010714Y018540
X001714Y013540
X010714Y019540
X023714Y020540
X024714Y020540
X025714Y020540
X026714Y020540
T102
X028714Y007540
X013714Y004540
X022714Y001540
X026714Y007540
X023714Y012540
X016714Y011540
X024714Y013540
X021714Y002540
T103
X012714Y009540
X018714Y012540
X018714Y017540
X012714Y010540
X003714Y013540
X018714Y009540
X012714Y015540
X012714Y007540
X018714Y010540
X018714Y015540
X017564Y013090
X018714Y007540
X012714Y013540
X018714Y013540
X012714Y011540
X003714Y014540
X012714Y016540
X017564Y008990
X012714Y008540
X018714Y011540
X018714Y016540
X017564Y014090
X003714Y012540
X018714Y008540
X012714Y014540
X012714Y006540
X018714Y014540
X018714Y006540
X013214Y018540
X015214Y018540
X012714Y012540
X014214Y018540
X016214Y018540
X018214Y018540
X012714Y017540
X017564Y009990
X017214Y018540
T104
X008339Y008540
X008339Y002540
X003089Y008540
X003089Y002540
X029339Y008540
X029339Y002540
X024089Y008540
X024089Y002540
T105
X025714Y001540
X026714Y001540
X030714Y005540
X009714Y006540
X027714Y001540
X030714Y006540
X004714Y001540
X005714Y001540
X006714Y001540
X009714Y004540
X030714Y004540
X009714Y005540
T00
M30
